<?xml version="1.0" encoding="UTF-8"?>
<svg id="Capa_1" xmlns="http://www.w3.org/2000/svg" baseProfile="tiny" version="1.2" viewBox="0 0 461.98 612">
  <rect x="94.55" y="212.42" width="221.49" height="221.49"/>
  <path d="M356.79,366.03v-8.82c0-10.79-3.5-18.73-8.91-24.65,1.41-.95,2.76-2.01,4.01-3.25,5.03-4.98,7.69-11.62,7.69-19.2,0-2.55-.3-5.57-1.28-8.62.77-1.71,1.2-3.6,1.2-5.6v-4.38c0-11.1-4.73-18.06-11.33-22.45,7.73-8.65,11.31-20.76,11.31-36.96,0-38.37-19.91-54.02-68.72-54.02-25.25,0-42.75,4.2-53.82,13.48-14.86-13.44-41.65-13.48-56.95-13.48h-2.62c-19.85-.01-44.63-.08-58.79,14.05-6.28,6.27-9.6,14.63-9.6,24.18,0,4.28.65,9.57,3.03,14.65-1.89,2.35-3.03,5.33-3.03,8.58v5.31c0,8.65,2.07,15.41,5.4,20.82-3.13,2.51-5.17,6.31-5.17,10.63v48.53c0,4.13,1.87,7.79,4.76,10.29-3.37,5.32-5.17,11.6-5.17,18.53,0,4.24.64,9.48,2.97,14.52-1.86,2.33-2.97,5.29-2.97,8.5v5.26c0,41.18,45.07,41.18,64.31,41.18l5.4.04c2.11.02,4.31.04,6.58.04,17.07,0,37.68-1.26,50.29-13.14,11.07,9,28.41,13.06,53.27,13.06,16.89,0,68.27,0,68.27-43.02v-8.82c0-1.02-.11-2.01-.32-2.96.12-.75.19-1.52.19-2.3Z"/>
  <g>
    <path d="M149.15,232.51c-13.71,0-27.69-2.82-27.69-19.33,0-25.9,34.75-24.83,57.97-24.83s54.57.54,54.57,26.31v7.11h-49.82c.14-2.15-.95-2.95-4.75-2.95-4.34,0-5.84,1.07-5.84,3.76,0,2.15.95,3.09,3.26,3.09h27.02c14.25,0,30.27,1.34,30.27,19.19,0,28.05-38.28,25.23-60.68,25.23s-52-.54-52-28.05v-5.37h53.76c-.14,2.15.95,2.82,4.75,2.82,4.34,0,5.84-.94,5.84-3.49,0-2.15-.95-3.49-3.26-3.49h-33.4Z" fill="#fff"/>
    <path d="M291.43,188.35c49.69,0,55.66,16.51,55.66,40.8s-5.97,40.93-55.66,40.93-55.93-16.37-55.93-40.93,6.25-40.8,55.93-40.8ZM291.29,236.94c5.97,0,5.57-3.22,5.57-7.78s.41-7.65-5.57-7.65-5.57,3.09-5.57,7.65-.41,7.78,5.57,7.78Z" fill="#fff"/>
  </g>
  <g>
    <path d="M148.86,371.24c-13.66,0-27.58-2.83-27.58-19.38,0-25.97,34.62-24.9,57.74-24.9s54.36.54,54.36,26.38v7.13h-49.62c.14-2.15-.95-2.96-4.73-2.96-4.33,0-5.81,1.08-5.81,3.77,0,2.15.95,3.1,3.25,3.1h26.91c14.2,0,30.15,1.35,30.15,19.25,0,28.13-38.13,25.3-60.44,25.3s-51.79-.54-51.79-28.13v-5.38h53.55c-.14,2.15.95,2.83,4.73,2.83,4.33,0,5.81-.94,5.81-3.5,0-2.15-.95-3.5-3.25-3.5h-33.26Z" fill="#fcc107"/>
    <path d="M347.09,369.89v9.02c0,18.44-12.44,30.01-55.84,30.01-50.03,0-56.39-16.42-56.39-41.05s6.36-40.91,56.39-40.91c42.32,0,55.71,10.77,55.71,28.53v9.02h-49.62c-.14-2.83-.95-4.31-5.54-4.31-5.95,0-5.54,3.1-5.54,7.67s-.41,7.81,5.54,7.81c5.54,0,5.54-2.56,5.54-5.79h49.76Z" fill="#fcc107"/>
  </g>
  <g>
    <path d="M121.69,273.84h36.16l5.89,16.8,5.05-16.8h37v49.06h-30.27v-17.22l-4.71,12.45h-14.13l-4.71-12.45v17.22h-30.27v-49.06Z" fill="#fff"/>
    <path d="M242.09,272.83c30.78,0,34.48,10.28,34.48,25.41s-3.7,25.49-34.48,25.49-34.64-10.2-34.64-25.49,3.87-25.41,34.64-25.41ZM242.01,303.09c3.7,0,3.45-2.01,3.45-4.85s.25-4.76-3.45-4.76-3.45,1.92-3.45,4.76-.25,4.85,3.45,4.85Z" fill="#fff"/>
    <path d="M294.55,300.33c-8.49,0-17.15-1.76-17.15-12.04,0-16.13,21.53-15.46,35.9-15.46s33.8.33,33.8,16.38v4.43h-30.86c.08-1.34-.59-1.84-2.94-1.84-2.69,0-3.62.67-3.62,2.34,0,1.34.59,1.92,2.02,1.92h16.73c8.83,0,18.75.84,18.75,11.95,0,17.47-23.71,15.71-37.59,15.71s-32.2-.33-32.2-17.47v-3.34h33.3c-.08,1.34.59,1.76,2.94,1.76,2.69,0,3.62-.59,3.62-2.17,0-1.34-.59-2.17-2.02-2.17h-20.68Z" fill="#fff"/>
  </g>
</svg>
